<?xml version="1.0" encoding="UTF-8" standalone="no"?><!DOCTYPE svg PUBLIC "-//W3C//DTD SVG 1.1//EN" "http://www.w3.org/Graphics/SVG/1.1/DTD/svg11.dtd"><!-- Generated by graphviz version 2.40.1 (20161225.0304)
 --><!-- Title: %0 Pages: 1 -->
<svg xmlns="http://www.w3.org/2000/svg" width="929pt" height="2788pt" viewBox="0.00 0.00 929.40 2788.00">
<g id="graph0" class="graph" transform="scale(1 1) rotate(0) translate(4 2784)">
<title>%0</title>
<polygon fill="#ffffff" stroke="transparent" points="-4,4 -4,-2784 925.3988,-2784 925.3988,4 -4,4"/>
<text text-anchor="middle" x="460.6994" y="-22" font-family="Times,serif" font-size="60.00" fill="#ff0000">6434</text>
<!-- 0 -->
<g id="node1" class="node">
<title>0</title>
<polygon fill="none" stroke="#000000" points="542.7733,-2756.4377 571.3988,-2744 600.0243,-2756.4377 599.9976,-2776.5623 542.8,-2776.5623 542.7733,-2756.4377"/>
<text text-anchor="middle" x="571.3988" y="-2757.8" font-family="Times,serif" font-size="14.00" fill="#000000">0,1</text>
</g>
<!-- 1 -->
<g id="node2" class="node">
<title>1</title>
<ellipse fill="none" stroke="#000000" cx="571.3988" cy="-2673.2" rx="27.8725" ry="18"/>
<text text-anchor="middle" x="571.3988" y="-2669" font-family="Times,serif" font-size="14.00" fill="#000000">9,13</text>
</g>
<!-- 0&#45;&gt;1 -->
<g id="edge1" class="edge">
<title>0-&gt;1</title>
<path fill="none" stroke="#ff0000" stroke-width="3" d="M562.7409,-2747.4672C559.435,-2741.1088 556.0624,-2733.4188 554.3988,-2726 552.765,-2718.7143 552.765,-2716.4857 554.3988,-2709.2 555.1247,-2705.9627 556.1761,-2702.6738 557.4053,-2699.4664"/>
<polygon fill="#ff0000" stroke="#ff0000" stroke-width="3" points="560.6493,-2700.7843 561.4791,-2690.222 554.2436,-2697.9615 560.6493,-2700.7843"/>
<text text-anchor="middle" x="561.3988" y="-2713.4" font-family="Times,serif" font-size="14.00" fill="#ff0000">65</text>
</g>
<!-- 1&#45;&gt;0 -->
<g id="edge2" class="edge">
<title>1-&gt;0</title>
<path fill="none" stroke="#000000" d="M571.3988,-2691.272C571.3988,-2703.4243 571.3988,-2719.6958 571.3988,-2733.568"/>
<polygon fill="#000000" stroke="#000000" points="567.8989,-2733.6005 571.3988,-2743.6006 574.8989,-2733.6006 567.8989,-2733.6005"/>
<text text-anchor="middle" x="578.3988" y="-2713.4" font-family="Times,serif" font-size="14.00" fill="#000000">65</text>
</g>
<!-- 2 -->
<g id="node3" class="node">
<title>2</title>
<ellipse fill="none" stroke="#000000" cx="592.3988" cy="-2406.8" rx="27.8725" ry="18"/>
<text text-anchor="middle" x="592.3988" y="-2402.6" font-family="Times,serif" font-size="14.00" fill="#000000">37,9</text>
</g>
<!-- 1&#45;&gt;2 -->
<g id="edge3" class="edge">
<title>1-&gt;2</title>
<path fill="none" stroke="#000000" d="M572.8422,-2654.8892C576.4475,-2609.1536 585.8661,-2489.6719 590.1813,-2434.9306"/>
<polygon fill="#000000" stroke="#000000" points="593.6763,-2435.1308 590.973,-2424.8866 586.6979,-2434.5806 593.6763,-2435.1308"/>
<text text-anchor="middle" x="592.8988" y="-2535.8" font-family="Times,serif" font-size="14.00" fill="#000000">208</text>
</g>
<!-- 3 -->
<g id="node4" class="node">
<title>3</title>
<ellipse fill="none" stroke="#000000" cx="498.3988" cy="-2584.4" rx="27.8725" ry="18"/>
<text text-anchor="middle" x="498.3988" y="-2580.2" font-family="Times,serif" font-size="14.00" fill="#000000">7,43</text>
</g>
<!-- 1&#45;&gt;3 -->
<g id="edge4" class="edge">
<title>1-&gt;3</title>
<path fill="none" stroke="#ff0000" stroke-width="3" d="M558.0095,-2656.9127C546.896,-2643.3938 530.9265,-2623.968 518.3132,-2608.6247"/>
<polygon fill="#ff0000" stroke="#ff0000" stroke-width="3" points="520.7573,-2606.0862 511.7032,-2600.584 515.3499,-2610.5315 520.7573,-2606.0862"/>
<text text-anchor="middle" x="552.8988" y="-2624.6" font-family="Times,serif" font-size="14.00" fill="#ff0000">228</text>
</g>
<!-- 2&#45;&gt;1 -->
<g id="edge7" class="edge">
<title>2-&gt;1</title>
<path fill="none" stroke="#000000" d="M598.7844,-2424.5305C600.5943,-2430.2844 602.3548,-2436.7462 603.3988,-2442.8 618.1206,-2528.1636 617.6177,-2555.3015 589.3988,-2637.2 588.3061,-2640.3711 586.9904,-2643.6187 585.5737,-2646.8026"/>
<polygon fill="#000000" stroke="#000000" points="582.3196,-2645.4937 581.1426,-2656.023 588.6288,-2648.5258 582.3196,-2645.4937"/>
<text text-anchor="middle" x="623.8988" y="-2535.8" font-family="Times,serif" font-size="14.00" fill="#000000">208</text>
</g>
<!-- 4 -->
<g id="node5" class="node">
<title>4</title>
<ellipse fill="none" stroke="#000000" cx="629.3988" cy="-2318" rx="27.8725" ry="18"/>
<text text-anchor="middle" x="629.3988" y="-2313.8" font-family="Times,serif" font-size="14.00" fill="#000000">57,5</text>
</g>
<!-- 2&#45;&gt;4 -->
<g id="edge5" class="edge">
<title>2-&gt;4</title>
<path fill="none" stroke="#ff0000" stroke-width="3" d="M589.4537,-2388.4993C588.5554,-2377.9991 588.8054,-2364.7991 593.3988,-2354 595.7481,-2348.4768 599.3841,-2343.3507 603.4589,-2338.7996"/>
<polygon fill="#ff0000" stroke="#ff0000" stroke-width="3" points="605.9597,-2341.2488 610.581,-2331.7149 601.0229,-2336.286 605.9597,-2341.2488"/>
<text text-anchor="middle" x="600.3988" y="-2358.2" font-family="Times,serif" font-size="14.00" fill="#ff0000">84</text>
</g>
<!-- 6 -->
<g id="node7" class="node">
<title>6</title>
<ellipse fill="none" stroke="#000000" cx="508.3988" cy="-2495.6" rx="32.5309" ry="18"/>
<text text-anchor="middle" x="508.3988" y="-2491.4" font-family="Times,serif" font-size="14.00" fill="#000000">31,43</text>
</g>
<!-- 2&#45;&gt;6 -->
<g id="edge6" class="edge">
<title>2-&gt;6</title>
<path fill="none" stroke="#000000" d="M577.3317,-2422.1403C571.1248,-2428.5005 563.8825,-2435.9742 557.3988,-2442.8 548.4724,-2452.1974 538.7425,-2462.6397 530.3228,-2471.7407"/>
<polygon fill="#000000" stroke="#000000" points="527.5252,-2469.6112 523.314,-2479.3332 532.6687,-2474.3593 527.5252,-2469.6112"/>
<text text-anchor="middle" x="567.8988" y="-2447" font-family="Times,serif" font-size="14.00" fill="#000000">240</text>
</g>
<!-- 3&#45;&gt;1 -->
<g id="edge10" class="edge">
<title>3-&gt;1</title>
<path fill="none" stroke="#000000" d="M496.0281,-2602.4504C495.5269,-2613.3728 496.6452,-2627.0949 503.3988,-2637.2 511.1471,-2648.7935 523.8834,-2656.918 536.2513,-2662.4749"/>
<polygon fill="#000000" stroke="#000000" points="534.966,-2665.7305 545.5486,-2666.2388 537.5927,-2659.242 534.966,-2665.7305"/>
<text text-anchor="middle" x="513.8988" y="-2624.6" font-family="Times,serif" font-size="14.00" fill="#000000">228</text>
</g>
<!-- 5 -->
<g id="node6" class="node">
<title>5</title>
<ellipse fill="none" stroke="#000000" cx="317.3988" cy="-1962.8" rx="27.8725" ry="18"/>
<text text-anchor="middle" x="317.3988" y="-1958.6" font-family="Times,serif" font-size="14.00" fill="#000000">7,67</text>
</g>
<!-- 3&#45;&gt;5 -->
<g id="edge8" class="edge">
<title>3-&gt;5</title>
<path fill="none" stroke="#000000" d="M470.7078,-2581.1415C423.8197,-2575.3271 331.003,-2562.4489 301.3988,-2548.4 268.7001,-2532.8826 239.3988,-2531.7938 239.3988,-2495.6 239.3988,-2495.6 239.3988,-2495.6 239.3988,-2051.6 239.3988,-2021.167 265.5788,-1996.1915 287.6043,-1980.5645"/>
<polygon fill="#000000" stroke="#000000" points="289.7515,-1983.3381 296.0849,-1974.8447 285.8373,-1977.5347 289.7515,-1983.3381"/>
<text text-anchor="middle" x="249.8988" y="-2269.4" font-family="Times,serif" font-size="14.00" fill="#000000">136</text>
</g>
<!-- 3&#45;&gt;6 -->
<g id="edge9" class="edge">
<title>3-&gt;6</title>
<path fill="none" stroke="#ff0000" stroke-width="3" d="M503.0302,-2566.5675C504.3459,-2560.8081 505.629,-2554.3689 506.3988,-2548.4 507.4152,-2540.519 507.9728,-2531.9259 508.2656,-2524.005"/>
<polygon fill="#ff0000" stroke="#ff0000" stroke-width="3" points="511.7708,-2523.8339 508.5191,-2513.7504 504.773,-2523.6608 511.7708,-2523.8339"/>
<text text-anchor="middle" x="518.8988" y="-2535.8" font-family="Times,serif" font-size="14.00" fill="#ff0000">140</text>
</g>
<!-- 4&#45;&gt;2 -->
<g id="edge11" class="edge">
<title>4-&gt;2</title>
<path fill="none" stroke="#000000" d="M622.104,-2335.5076C616.8373,-2348.1475 609.6268,-2365.4527 603.6288,-2379.848"/>
<polygon fill="#000000" stroke="#000000" points="600.3242,-2378.679 599.7088,-2389.256 606.7858,-2381.3714 600.3242,-2378.679"/>
<text text-anchor="middle" x="621.3988" y="-2358.2" font-family="Times,serif" font-size="14.00" fill="#000000">84</text>
</g>
<!-- 7 -->
<g id="node8" class="node">
<title>7</title>
<ellipse fill="none" stroke="#000000" cx="653.3988" cy="-364.4" rx="32.5309" ry="18"/>
<text text-anchor="middle" x="653.3988" y="-360.2" font-family="Times,serif" font-size="14.00" fill="#000000">79,13</text>
</g>
<!-- 4&#45;&gt;7 -->
<g id="edge12" class="edge">
<title>4-&gt;7</title>
<path fill="none" stroke="#000000" d="M656.9765,-2314.9553C726.1268,-2306.5585 901.3988,-2280.2411 901.3988,-2229.2 901.3988,-2229.2 901.3988,-2229.2 901.3988,-1385.6 901.3988,-1207.8394 884.3988,-1163.7606 884.3988,-986 884.3988,-986 884.3988,-986 884.3988,-675.2 884.3988,-562.1887 885.6721,-509.3621 800.3988,-435.2 768.4793,-407.4396 723.7765,-387.9742 692.0668,-376.5728"/>
<polygon fill="#000000" stroke="#000000" points="692.8555,-373.1412 682.2607,-373.1541 690.5511,-379.7511 692.8555,-373.1412"/>
<text text-anchor="middle" x="910.8988" y="-1337" font-family="Times,serif" font-size="14.00" fill="#000000">154</text>
</g>
<!-- 9 -->
<g id="node10" class="node">
<title>9</title>
<ellipse fill="none" stroke="#000000" cx="673.3988" cy="-2229.2" rx="32.5309" ry="18"/>
<text text-anchor="middle" x="673.3988" y="-2225" font-family="Times,serif" font-size="14.00" fill="#000000">55,35</text>
</g>
<!-- 4&#45;&gt;9 -->
<g id="edge13" class="edge">
<title>4-&gt;9</title>
<path fill="none" stroke="#ff0000" stroke-width="3" d="M640.468,-2301.095C644.1488,-2295.1687 648.1372,-2288.3944 651.3988,-2282 655.55,-2273.8615 659.5588,-2264.7533 662.9915,-2256.4236"/>
<polygon fill="#ff0000" stroke="#ff0000" stroke-width="3" points="666.2539,-2257.6917 666.7305,-2247.1076 659.7576,-2255.0844 666.2539,-2257.6917"/>
<text text-anchor="middle" x="669.8988" y="-2269.4" font-family="Times,serif" font-size="14.00" fill="#ff0000">212</text>
</g>
<!-- 5&#45;&gt;3 -->
<g id="edge15" class="edge">
<title>5-&gt;3</title>
<path fill="none" stroke="#000000" d="M316.755,-1980.8252C316.1703,-1998.7641 315.3988,-2027.0813 315.3988,-2051.6 315.3988,-2495.6 315.3988,-2495.6 315.3988,-2495.6 315.3988,-2527.9462 409.1098,-2559.4715 462.4128,-2574.7868"/>
<polygon fill="#000000" stroke="#000000" points="461.6047,-2578.1954 472.1793,-2577.5419 463.5052,-2571.4583 461.6047,-2578.1954"/>
<text text-anchor="middle" x="325.8988" y="-2269.4" font-family="Times,serif" font-size="14.00" fill="#000000">136</text>
</g>
<!-- 8 -->
<g id="node9" class="node">
<title>8</title>
<ellipse fill="none" stroke="#000000" cx="435.3988" cy="-2051.6" rx="32.5309" ry="18"/>
<text text-anchor="middle" x="435.3988" y="-2047.4" font-family="Times,serif" font-size="14.00" fill="#000000">31,63</text>
</g>
<!-- 5&#45;&gt;8 -->
<g id="edge14" class="edge">
<title>5-&gt;8</title>
<path fill="none" stroke="#000000" d="M337.3112,-1975.7413C347.373,-1982.4268 359.6879,-1990.8347 370.3988,-1998.8 383.6692,-2008.6687 397.9799,-2020.1919 409.7862,-2029.9509"/>
<polygon fill="#000000" stroke="#000000" points="407.5907,-2032.6772 417.5162,-2036.3832 412.0682,-2027.2964 407.5907,-2032.6772"/>
<text text-anchor="middle" x="401.8988" y="-2003" font-family="Times,serif" font-size="14.00" fill="#000000">144</text>
</g>
<!-- 10 -->
<g id="node11" class="node">
<title>10</title>
<ellipse fill="none" stroke="#000000" cx="285.3988" cy="-1874" rx="32.5309" ry="18"/>
<text text-anchor="middle" x="285.3988" y="-1869.8" font-family="Times,serif" font-size="14.00" fill="#000000">17,85</text>
</g>
<!-- 5&#45;&gt;10 -->
<g id="edge16" class="edge">
<title>5-&gt;10</title>
<path fill="none" stroke="#ff0000" stroke-width="3" d="M297.3677,-1949.7562C289.9549,-1943.7478 282.3901,-1935.9162 278.3988,-1926.8 274.9712,-1918.9713 274.9308,-1909.9135 276.2787,-1901.5344"/>
<polygon fill="#ff0000" stroke="#ff0000" stroke-width="3" points="279.6931,-1902.3034 278.477,-1891.7786 272.8643,-1900.7646 279.6931,-1902.3034"/>
<text text-anchor="middle" x="288.8988" y="-1914.2" font-family="Times,serif" font-size="14.00" fill="#ff0000">192</text>
</g>
<!-- 6&#45;&gt;2 -->
<g id="edge20" class="edge">
<title>6-&gt;2</title>
<path fill="none" stroke="#ff0000" stroke-width="3" d="M507.9008,-2477.324C508.4954,-2466.3166 510.9204,-2452.5845 518.3988,-2442.8 527.7536,-2430.5604 542.3564,-2422.2447 556.1266,-2416.7188"/>
<polygon fill="#ff0000" stroke="#ff0000" stroke-width="3" points="557.7089,-2419.8683 565.9193,-2413.1719 555.3251,-2413.2867 557.7089,-2419.8683"/>
<text text-anchor="middle" x="528.8988" y="-2447" font-family="Times,serif" font-size="14.00" fill="#ff0000">240</text>
</g>
<!-- 6&#45;&gt;3 -->
<g id="edge18" class="edge">
<title>6-&gt;3</title>
<path fill="none" stroke="#000000" d="M493.0064,-2511.512C488.3441,-2517.3587 483.8199,-2524.3366 481.3988,-2531.6 478.4782,-2540.3619 480.1318,-2549.9693 483.3423,-2558.5589"/>
<polygon fill="#000000" stroke="#000000" points="480.1719,-2560.0427 487.4677,-2567.7252 486.5552,-2557.1697 480.1719,-2560.0427"/>
<text text-anchor="middle" x="491.8988" y="-2535.8" font-family="Times,serif" font-size="14.00" fill="#000000">140</text>
</g>
<!-- 6&#45;&gt;8 -->
<g id="edge17" class="edge">
<title>6-&gt;8</title>
<path fill="none" stroke="#000000" d="M487.9325,-2481.1293C468.229,-2465.336 441.3988,-2438.0864 441.3988,-2406.8 441.3988,-2406.8 441.3988,-2406.8 441.3988,-2140.4 441.3988,-2120.0543 439.8115,-2097.146 438.2697,-2079.6936"/>
<polygon fill="#000000" stroke="#000000" points="441.7424,-2079.2362 437.3302,-2069.6038 434.7725,-2079.8853 441.7424,-2079.2362"/>
<text text-anchor="middle" x="451.8988" y="-2269.4" font-family="Times,serif" font-size="14.00" fill="#000000">112</text>
</g>
<!-- 6&#45;&gt;9 -->
<g id="edge19" class="edge">
<title>6-&gt;9</title>
<path fill="none" stroke="#000000" d="M505.5166,-2477.1981C504.5291,-2466.9031 504.3347,-2453.9383 507.3988,-2442.8 526.9894,-2371.5863 550.7936,-2361.0261 592.3988,-2300 603.426,-2283.8254 605.0683,-2278.5362 619.3988,-2265.2 626.0979,-2258.9657 633.9816,-2253.0636 641.624,-2247.9105"/>
<polygon fill="#000000" stroke="#000000" points="643.9064,-2250.6024 650.3992,-2242.2302 640.1025,-2244.7261 643.9064,-2250.6024"/>
<text text-anchor="middle" x="562.8988" y="-2358.2" font-family="Times,serif" font-size="14.00" fill="#000000">184</text>
</g>
<!-- 7&#45;&gt;4 -->
<g id="edge21" class="edge">
<title>7-&gt;4</title>
<path fill="none" stroke="#000000" d="M634.8449,-379.4048C602.733,-406.0366 535.964,-464.3963 491.3988,-524 437.7949,-595.6925 438.2408,-622.4645 396.3988,-701.6 379.8032,-732.9872 382.7792,-745.6805 359.3988,-772.4 322.8578,-814.1596 293.6903,-802.4234 257.3988,-844.4 101.3247,-1024.9234 72.9235,-1091.8503 14.3988,-1323.2 -10.8536,-1423.0233 9.7322,-1451.8408 8.3988,-1554.8 7.4784,-1625.8665 -14.4267,-1651.3621 18.3988,-1714.4 167.324,-2000.3951 500.6312,-2233.9198 600.5505,-2299.5463"/>
<polygon fill="#000000" stroke="#000000" points="598.9258,-2302.6653 609.2134,-2305.1982 602.7507,-2296.8027 598.9258,-2302.6653"/>
<text text-anchor="middle" x="24.8988" y="-1337" font-family="Times,serif" font-size="14.00" fill="#000000">154</text>
</g>
<!-- 12 -->
<g id="node13" class="node">
<title>12</title>
<ellipse fill="none" stroke="#000000" cx="758.3988" cy="-453.2" rx="32.5309" ry="18"/>
<text text-anchor="middle" x="758.3988" y="-449" font-family="Times,serif" font-size="14.00" fill="#000000">79,39</text>
</g>
<!-- 7&#45;&gt;12 -->
<g id="edge22" class="edge">
<title>7-&gt;12</title>
<path fill="none" stroke="#000000" d="M665.5526,-381.35C673.9802,-392.3739 685.8991,-406.6138 698.3988,-417.2 706.5332,-424.0892 716.1407,-430.4853 725.2557,-435.9169"/>
<polygon fill="#000000" stroke="#000000" points="723.718,-439.0697 734.1337,-441.0095 727.201,-432.9978 723.718,-439.0697"/>
<text text-anchor="middle" x="708.8988" y="-404.6" font-family="Times,serif" font-size="14.00" fill="#000000">194</text>
</g>
<!-- 13 -->
<g id="node14" class="node">
<title>13</title>
<ellipse fill="none" stroke="#000000" cx="609.3988" cy="-275.6" rx="32.5309" ry="18"/>
<text text-anchor="middle" x="609.3988" y="-271.4" font-family="Times,serif" font-size="14.00" fill="#000000">99,17</text>
</g>
<!-- 7&#45;&gt;13 -->
<g id="edge23" class="edge">
<title>7-&gt;13</title>
<path fill="none" stroke="#ff0000" stroke-width="3" d="M646.7305,-346.4924C642.6744,-336.1232 637.1744,-322.9232 631.3988,-311.6 629.7014,-308.2723 627.8072,-304.8417 625.862,-301.4813"/>
<polygon fill="#ff0000" stroke="#ff0000" stroke-width="3" points="628.8404,-299.6425 620.6937,-292.8689 622.8382,-303.2444 628.8404,-299.6425"/>
<text text-anchor="middle" x="649.8988" y="-315.8" font-family="Times,serif" font-size="14.00" fill="#ff0000">164</text>
</g>
<!-- 8&#45;&gt;5 -->
<g id="edge27" class="edge">
<title>8-&gt;5</title>
<path fill="none" stroke="#ff0000" stroke-width="3" d="M404.5657,-2045.0125C385.6914,-2039.6894 362.0496,-2030.5568 345.3988,-2015.6 337.6074,-2008.6013 331.6072,-1998.9132 327.1969,-1989.7445"/>
<polygon fill="#ff0000" stroke="#ff0000" stroke-width="3" points="330.3756,-1988.2777 323.1681,-1980.5123 323.9599,-1991.0775 330.3756,-1988.2777"/>
<text text-anchor="middle" x="355.8988" y="-2003" font-family="Times,serif" font-size="14.00" fill="#ff0000">144</text>
</g>
<!-- 8&#45;&gt;6 -->
<g id="edge24" class="edge">
<title>8-&gt;6</title>
<path fill="none" stroke="#000000" d="M414.3965,-2065.5743C393.7775,-2081.151 365.3988,-2108.402 365.3988,-2140.4 365.3988,-2406.8 365.3988,-2406.8 365.3988,-2406.8 365.3988,-2454.9574 424.6521,-2477.9114 466.8752,-2488.1547"/>
<polygon fill="#000000" stroke="#000000" points="466.1354,-2491.5757 476.6625,-2490.3796 467.6871,-2484.7499 466.1354,-2491.5757"/>
<text text-anchor="middle" x="375.8988" y="-2269.4" font-family="Times,serif" font-size="14.00" fill="#000000">112</text>
</g>
<!-- 11 -->
<g id="node12" class="node">
<title>11</title>
<ellipse fill="none" stroke="#000000" cx="368.3988" cy="-1341.2" rx="32.5309" ry="18"/>
<text text-anchor="middle" x="368.3988" y="-1337" font-family="Times,serif" font-size="14.00" fill="#000000">41,83</text>
</g>
<!-- 8&#45;&gt;11 -->
<g id="edge25" class="edge">
<title>8-&gt;11</title>
<path fill="none" stroke="#000000" d="M433.1454,-2033.6049C431.0991,-2015.6888 428.3988,-1987.3885 428.3988,-1962.8 428.3988,-1962.8 428.3988,-1962.8 428.3988,-1652 428.3988,-1599.6082 412.8547,-1588.3314 403.3988,-1536.8 390.4525,-1466.2471 395.2556,-1447.1562 379.3988,-1377.2 378.7834,-1374.4853 378.0683,-1371.6773 377.3037,-1368.8823"/>
<polygon fill="#000000" stroke="#000000" points="380.58,-1367.6166 374.4072,-1359.0057 373.8629,-1369.5865 380.58,-1367.6166"/>
<text text-anchor="middle" x="438.8988" y="-1692.2" font-family="Times,serif" font-size="14.00" fill="#000000">110</text>
</g>
<!-- 14 -->
<g id="node15" class="node">
<title>14</title>
<ellipse fill="none" stroke="#000000" cx="629.3988" cy="-2140.4" rx="32.5309" ry="18"/>
<text text-anchor="middle" x="629.3988" y="-2136.2" font-family="Times,serif" font-size="14.00" fill="#000000">65,59</text>
</g>
<!-- 8&#45;&gt;14 -->
<g id="edge26" class="edge">
<title>8-&gt;14</title>
<path fill="none" stroke="#000000" d="M460.4727,-2063.2577C475.3287,-2070.2193 494.4946,-2079.2956 511.3988,-2087.6 526.1704,-2094.8568 529.4789,-2097.4531 544.3988,-2104.4 560.2494,-2111.7802 578.028,-2119.4084 593.2123,-2125.7328"/>
<polygon fill="#000000" stroke="#000000" points="592.1911,-2129.0979 602.7696,-2129.6849 594.866,-2122.6292 592.1911,-2129.0979"/>
<text text-anchor="middle" x="554.8988" y="-2091.8" font-family="Times,serif" font-size="14.00" fill="#000000">150</text>
</g>
<!-- 9&#45;&gt;4 -->
<g id="edge29" class="edge">
<title>9-&gt;4</title>
<path fill="none" stroke="#000000" d="M648.8673,-2241.7328C640.1087,-2247.5794 631.2217,-2255.4306 626.3988,-2265.2 622.6837,-2272.7253 622.004,-2281.6081 622.6658,-2289.9197"/>
<polygon fill="#000000" stroke="#000000" points="619.2253,-2290.5869 624.094,-2299.9968 626.1561,-2289.6046 619.2253,-2290.5869"/>
<text text-anchor="middle" x="636.8988" y="-2269.4" font-family="Times,serif" font-size="14.00" fill="#000000">212</text>
</g>
<!-- 9&#45;&gt;6 -->
<g id="edge31" class="edge">
<title>9-&gt;6</title>
<path fill="none" stroke="#000000" d="M680.4897,-2247.2094C683.6534,-2257.3817 686.2886,-2270.3544 684.3988,-2282 673.5046,-2349.1332 671.3188,-2371.2438 629.3988,-2424.8 608.0215,-2452.1113 572.9514,-2470.9547 546.0562,-2482.295"/>
<polygon fill="#000000" stroke="#000000" points="544.5168,-2479.1421 536.5578,-2486.1353 547.1407,-2485.6318 544.5168,-2479.1421"/>
<text text-anchor="middle" x="679.8988" y="-2358.2" font-family="Times,serif" font-size="14.00" fill="#000000">184</text>
</g>
<!-- 9&#45;&gt;12 -->
<g id="edge28" class="edge">
<title>9-&gt;12</title>
<path fill="none" stroke="#000000" d="M705.9651,-2226.7318C755.5792,-2220.9995 844.3988,-2202.1185 844.3988,-2140.4 844.3988,-2140.4 844.3988,-2140.4 844.3988,-542 844.3988,-510.4617 816.0603,-485.8705 791.918,-470.6431"/>
<polygon fill="#000000" stroke="#000000" points="793.6501,-467.6007 783.2735,-465.4611 790.051,-473.6046 793.6501,-467.6007"/>
<text text-anchor="middle" x="854.8988" y="-1337" font-family="Times,serif" font-size="14.00" fill="#000000">104</text>
</g>
<!-- 9&#45;&gt;14 -->
<g id="edge30" class="edge">
<title>9-&gt;14</title>
<path fill="none" stroke="#ff0000" stroke-width="3" d="M650.5457,-2215.8566C642.6861,-2209.9875 634.7698,-2202.3336 630.3988,-2193.2 626.7811,-2185.6407 625.6194,-2176.7481 625.621,-2168.4382"/>
<polygon fill="#ff0000" stroke="#ff0000" stroke-width="3" points="629.1205,-2168.5373 626.1479,-2158.368 622.13,-2168.1714 629.1205,-2168.5373"/>
<text text-anchor="middle" x="640.8988" y="-2180.6" font-family="Times,serif" font-size="14.00" fill="#ff0000">146</text>
</g>
<!-- 10&#45;&gt;5 -->
<g id="edge34" class="edge">
<title>10-&gt;5</title>
<path fill="none" stroke="#000000" d="M292.5275,-1891.8887C294.7776,-1897.6512 297.2389,-1904.078 299.3988,-1910 302.4185,-1918.2796 305.5658,-1927.3446 308.3684,-1935.5905"/>
<polygon fill="#000000" stroke="#000000" points="305.0744,-1936.7757 311.5844,-1945.1345 311.7079,-1934.5404 305.0744,-1936.7757"/>
<text text-anchor="middle" x="315.8988" y="-1914.2" font-family="Times,serif" font-size="14.00" fill="#000000">192</text>
</g>
<!-- 10&#45;&gt;11 -->
<g id="edge33" class="edge">
<title>10-&gt;11</title>
<path fill="none" stroke="#ff0000" stroke-width="3" d="M311.3335,-1862.982C339.157,-1849.215 379.3988,-1822.8036 379.3988,-1785.2 379.3988,-1785.2 379.3988,-1785.2 379.3988,-1607.6 379.3988,-1583.3224 373.1966,-1577.7912 365.3988,-1554.8 341.0447,-1482.9937 319.5487,-1468.9996 308.3988,-1394 307.3008,-1386.6145 304.72,-1383.6975 308.3988,-1377.2 313.6059,-1368.0032 322.2035,-1360.8996 331.2856,-1355.5286"/>
<polygon fill="#ff0000" stroke="#ff0000" stroke-width="3" points="333.2015,-1358.4755 340.4216,-1350.7218 329.9421,-1352.2806 333.2015,-1358.4755"/>
<text text-anchor="middle" x="389.8988" y="-1603.4" font-family="Times,serif" font-size="14.00" fill="#ff0000">158</text>
</g>
<!-- 18 -->
<g id="node19" class="node">
<title>18</title>
<ellipse fill="none" stroke="#000000" cx="204.3988" cy="-1785.2" rx="32.5309" ry="18"/>
<text text-anchor="middle" x="204.3988" y="-1781" font-family="Times,serif" font-size="14.00" fill="#000000">7,101</text>
</g>
<!-- 10&#45;&gt;18 -->
<g id="edge32" class="edge">
<title>10-&gt;18</title>
<path fill="none" stroke="#000000" d="M270.6,-1857.8843C264.9046,-1851.6748 258.3437,-1844.5123 252.3988,-1838 243.7425,-1828.5175 234.2279,-1818.0589 225.9687,-1808.9688"/>
<polygon fill="#000000" stroke="#000000" points="228.4012,-1806.4412 219.087,-1801.3918 223.2194,-1811.1475 228.4012,-1806.4412"/>
<text text-anchor="middle" x="262.8988" y="-1825.4" font-family="Times,serif" font-size="14.00" fill="#000000">150</text>
</g>
<!-- 11&#45;&gt;8 -->
<g id="edge36" class="edge">
<title>11-&gt;8</title>
<path fill="none" stroke="#000000" d="M400.8976,-1344.0786C463.2407,-1349.8807 594.8618,-1363.5915 610.3988,-1377.2 734.8698,-1486.2217 530.3988,-1575.3347 530.3988,-1740.8 530.3988,-1962.8 530.3988,-1962.8 530.3988,-1962.8 530.3988,-1996.7749 497.5704,-2021.4917 470.5097,-2036.0947"/>
<polygon fill="#000000" stroke="#000000" points="468.9111,-2032.981 461.6094,-2040.658 472.1049,-2039.21 468.9111,-2032.981"/>
<text text-anchor="middle" x="550.8988" y="-1692.2" font-family="Times,serif" font-size="14.00" fill="#000000">110</text>
</g>
<!-- 11&#45;&gt;10 -->
<g id="edge37" class="edge">
<title>11-&gt;10</title>
<path fill="none" stroke="#000000" d="M339.5002,-1349.9319C326.1935,-1355.5143 311.5735,-1364.2068 303.3988,-1377.2 238.2495,-1480.7504 287.3988,-1529.6598 287.3988,-1652 287.3988,-1785.2 287.3988,-1785.2 287.3988,-1785.2 287.3988,-1805.5046 286.8697,-1828.414 286.3558,-1845.8773"/>
<polygon fill="#000000" stroke="#000000" points="282.8544,-1845.8711 286.0426,-1855.9748 289.851,-1846.0881 282.8544,-1845.8711"/>
<text text-anchor="middle" x="297.8988" y="-1603.4" font-family="Times,serif" font-size="14.00" fill="#000000">158</text>
</g>
<!-- 15 -->
<g id="node16" class="node">
<title>15</title>
<ellipse fill="none" stroke="#000000" cx="578.3988" cy="-1430" rx="32.5309" ry="18"/>
<text text-anchor="middle" x="578.3988" y="-1425.8" font-family="Times,serif" font-size="14.00" fill="#000000">57,75</text>
</g>
<!-- 11&#45;&gt;15 -->
<g id="edge35" class="edge">
<title>11-&gt;15</title>
<path fill="none" stroke="#000000" d="M395.3912,-1351.6952C411.2349,-1358.257 431.416,-1367.321 448.3988,-1377.2 459.3409,-1383.5651 460.1571,-1388.1802 471.3988,-1394 492.6389,-1404.996 517.9428,-1413.689 538.6098,-1419.7759"/>
<polygon fill="#000000" stroke="#000000" points="537.7682,-1423.1754 548.3448,-1422.5534 539.6888,-1416.444 537.7682,-1423.1754"/>
<text text-anchor="middle" x="478.3988" y="-1381.4" font-family="Times,serif" font-size="14.00" fill="#000000">64</text>
</g>
<!-- 19 -->
<g id="node20" class="node">
<title>19</title>
<ellipse fill="none" stroke="#000000" cx="260.3988" cy="-1252.4" rx="37.6864" ry="18"/>
<text text-anchor="middle" x="260.3988" y="-1248.2" font-family="Times,serif" font-size="14.00" fill="#000000">39,113</text>
</g>
<!-- 11&#45;&gt;19 -->
<g id="edge38" class="edge">
<title>11-&gt;19</title>
<path fill="none" stroke="#ff0000" stroke-width="3" d="M354.5109,-1324.424C344.985,-1313.4736 331.7053,-1299.2501 318.3988,-1288.4 310.9116,-1282.2949 302.3118,-1276.4277 294.0672,-1271.2659"/>
<polygon fill="#ff0000" stroke="#ff0000" stroke-width="3" points="295.6945,-1268.1594 285.3297,-1265.9637 292.063,-1274.1438 295.6945,-1268.1594"/>
<text text-anchor="middle" x="346.8988" y="-1292.6" font-family="Times,serif" font-size="14.00" fill="#ff0000">160</text>
</g>
<!-- 12&#45;&gt;7 -->
<g id="edge42" class="edge">
<title>12-&gt;7</title>
<path fill="none" stroke="#ff0000" stroke-width="3" d="M727.8927,-446.3736C701.147,-439.7186 665.1947,-428.9125 656.3988,-417.2 651.2247,-410.3103 649.4409,-401.3766 649.257,-392.8233"/>
<polygon fill="#ff0000" stroke="#ff0000" stroke-width="3" points="652.7576,-392.8876 649.706,-382.7418 645.7645,-392.5762 652.7576,-392.8876"/>
<text text-anchor="middle" x="666.8988" y="-404.6" font-family="Times,serif" font-size="14.00" fill="#ff0000">194</text>
</g>
<!-- 12&#45;&gt;9 -->
<g id="edge41" class="edge">
<title>12-&gt;9</title>
<path fill="none" stroke="#000000" d="M767.7342,-470.6792C776.2118,-488.2034 787.3988,-516.2135 787.3988,-542 787.3988,-2140.4 787.3988,-2140.4 787.3988,-2140.4 787.3988,-2179.5596 745.0164,-2203.9789 711.9356,-2217.0748"/>
<polygon fill="#000000" stroke="#000000" points="710.5968,-2213.8387 702.4608,-2220.6252 713.0531,-2220.3936 710.5968,-2213.8387"/>
<text text-anchor="middle" x="797.8988" y="-1337" font-family="Times,serif" font-size="14.00" fill="#000000">104</text>
</g>
<!-- 16 -->
<g id="node17" class="node">
<title>16</title>
<ellipse fill="none" stroke="#000000" cx="685.3988" cy="-542" rx="32.5309" ry="18"/>
<text text-anchor="middle" x="685.3988" y="-537.8" font-family="Times,serif" font-size="14.00" fill="#000000">79,57</text>
</g>
<!-- 12&#45;&gt;16 -->
<g id="edge39" class="edge">
<title>12-&gt;16</title>
<path fill="none" stroke="#000000" d="M744.8901,-469.8855C736.4434,-480.2943 725.3211,-493.9558 715.3988,-506 712.2659,-509.8029 708.9363,-513.8213 705.6785,-517.7403"/>
<polygon fill="#000000" stroke="#000000" points="702.8889,-515.6207 699.178,-525.5444 708.2674,-520.1008 702.8889,-515.6207"/>
<text text-anchor="middle" x="735.3988" y="-493.4" font-family="Times,serif" font-size="14.00" fill="#000000">58</text>
</g>
<!-- 17 -->
<g id="node18" class="node">
<title>17</title>
<ellipse fill="none" stroke="#000000" cx="578.3988" cy="-98" rx="37.6864" ry="18"/>
<text text-anchor="middle" x="578.3988" y="-93.8" font-family="Times,serif" font-size="14.00" fill="#000000">107,35</text>
</g>
<!-- 12&#45;&gt;17 -->
<g id="edge40" class="edge">
<title>12-&gt;17</title>
<path fill="none" stroke="#000000" d="M758.3988,-435.1721C758.3988,-417.2311 758.3988,-388.9125 758.3988,-364.4 758.3988,-364.4 758.3988,-364.4 758.3988,-186.8 758.3988,-156.3554 674.5361,-126.0998 621.2953,-109.9594"/>
<polygon fill="#000000" stroke="#000000" points="621.9965,-106.5164 611.4136,-107.0183 619.9996,-113.2256 621.9965,-106.5164"/>
<text text-anchor="middle" x="768.8988" y="-271.4" font-family="Times,serif" font-size="14.00" fill="#000000">164</text>
</g>
<!-- 13&#45;&gt;7 -->
<g id="edge44" class="edge">
<title>13-&gt;7</title>
<path fill="none" stroke="#000000" d="M604.094,-293.6032C601.9712,-304.2488 601.1151,-317.6973 606.3988,-328.4 609.7146,-335.1164 614.9512,-340.9262 620.7465,-345.8013"/>
<polygon fill="#000000" stroke="#000000" points="618.7611,-348.6869 628.8673,-351.8672 622.9501,-343.0787 618.7611,-348.6869"/>
<text text-anchor="middle" x="616.8988" y="-315.8" font-family="Times,serif" font-size="14.00" fill="#000000">164</text>
</g>
<!-- 13&#45;&gt;17 -->
<g id="edge43" class="edge">
<title>13-&gt;17</title>
<path fill="none" stroke="#000000" d="M615.4288,-257.4825C623.6589,-229.4051 635.2583,-174.4117 615.3988,-134 613.0382,-129.1964 609.7655,-124.675 606.1346,-120.5653"/>
<polygon fill="#000000" stroke="#000000" points="608.3764,-117.8546 598.8567,-113.2041 603.3986,-122.7761 608.3764,-117.8546"/>
<text text-anchor="middle" x="633.3988" y="-182.6" font-family="Times,serif" font-size="14.00" fill="#000000">86</text>
</g>
<!-- 25 -->
<g id="node26" class="node">
<title>25</title>
<ellipse fill="none" stroke="#000000" cx="475.3988" cy="-186.8" rx="37.6864" ry="18"/>
<text text-anchor="middle" x="475.3988" y="-182.6" font-family="Times,serif" font-size="14.00" fill="#000000">137,37</text>
</g>
<!-- 13&#45;&gt;25 -->
<g id="edge45" class="edge">
<title>13-&gt;25</title>
<path fill="none" stroke="#ff0000" stroke-width="3" d="M577.4384,-271.3782C542.1764,-265.9944 488.7614,-255.4407 476.3988,-239.6 471.0251,-232.7145 469.5124,-223.6417 469.7312,-214.9632"/>
<polygon fill="#ff0000" stroke="#ff0000" stroke-width="3" points="473.2403,-215.0354 470.7137,-204.7463 466.2724,-214.3653 473.2403,-215.0354"/>
<text text-anchor="middle" x="486.8988" y="-227" font-family="Times,serif" font-size="14.00" fill="#ff0000">570</text>
</g>
<!-- 14&#45;&gt;8 -->
<g id="edge49" class="edge">
<title>14-&gt;8</title>
<path fill="none" stroke="#ff0000" stroke-width="3" d="M596.8083,-2137.3702C566.5043,-2133.398 520.9641,-2124.4062 486.3988,-2104.4 474.1268,-2097.2971 462.8889,-2086.3953 454.1041,-2076.3382"/>
<polygon fill="#ff0000" stroke="#ff0000" stroke-width="3" points="456.7008,-2073.9869 447.6119,-2068.5424 451.3218,-2078.4665 456.7008,-2073.9869"/>
<text text-anchor="middle" x="496.8988" y="-2091.8" font-family="Times,serif" font-size="14.00" fill="#ff0000">150</text>
</g>
<!-- 14&#45;&gt;9 -->
<g id="edge48" class="edge">
<title>14-&gt;9</title>
<path fill="none" stroke="#000000" d="M640.6937,-2157.6689C644.3113,-2163.5076 648.2038,-2170.1361 651.3988,-2176.4 655.55,-2184.5385 659.5588,-2193.6467 662.9915,-2201.9764"/>
<polygon fill="#000000" stroke="#000000" points="659.7576,-2203.3156 666.7305,-2211.2924 666.2539,-2200.7083 659.7576,-2203.3156"/>
<text text-anchor="middle" x="669.8988" y="-2180.6" font-family="Times,serif" font-size="14.00" fill="#000000">146</text>
</g>
<!-- 14&#45;&gt;15 -->
<g id="edge47" class="edge">
<title>14-&gt;15</title>
<path fill="none" stroke="#000000" d="M613.5785,-2124.2456C598.93,-2107.5185 579.3988,-2079.908 579.3988,-2051.6 579.3988,-2051.6 579.3988,-2051.6 579.3988,-1563.2 579.3988,-1527.021 579.0253,-1485.316 578.7349,-1458.3505"/>
<polygon fill="#000000" stroke="#000000" points="582.2319,-1458.0576 578.6207,-1448.0972 575.2323,-1458.1356 582.2319,-1458.0576"/>
<text text-anchor="middle" x="586.3988" y="-1781" font-family="Times,serif" font-size="14.00" fill="#000000">72</text>
</g>
<!-- 14&#45;&gt;16 -->
<g id="edge46" class="edge">
<title>14-&gt;16</title>
<path fill="none" stroke="#000000" d="M648.9487,-2125.7267C667.7699,-2109.7683 693.3988,-2082.3856 693.3988,-2051.6 693.3988,-2051.6 693.3988,-2051.6 693.3988,-1430 693.3988,-1382.4004 697.5627,-1370.6448 701.3988,-1323.2 705.5405,-1271.9746 711.3988,-1259.3925 711.3988,-1208 711.3988,-1208 711.3988,-1208 711.3988,-630.8 711.3988,-609.4488 704.3901,-586.3312 697.6505,-569.037"/>
<polygon fill="#000000" stroke="#000000" points="700.8052,-567.5052 693.7685,-559.5847 694.33,-570.1646 700.8052,-567.5052"/>
<text text-anchor="middle" x="708.3988" y="-1337" font-family="Times,serif" font-size="14.00" fill="#000000">44</text>
</g>
<!-- 15&#45;&gt;11 -->
<g id="edge50" class="edge">
<title>15-&gt;11</title>
<path fill="none" stroke="#000000" d="M566.8752,-1412.9247C558.0011,-1401.1077 544.6894,-1385.9822 529.3988,-1377.2 509.3646,-1365.6933 450.642,-1354.3925 409.9492,-1347.6077"/>
<polygon fill="#000000" stroke="#000000" points="410.4608,-1344.145 400.0266,-1345.9827 409.3294,-1351.053 410.4608,-1344.145"/>
<text text-anchor="middle" x="557.3988" y="-1381.4" font-family="Times,serif" font-size="14.00" fill="#000000">64</text>
</g>
<!-- 15&#45;&gt;14 -->
<g id="edge51" class="edge">
<title>15-&gt;14</title>
<path fill="none" stroke="#000000" d="M586.9493,-1447.5886C589.409,-1453.335 591.8443,-1459.8282 593.3988,-1466 633.0616,-1623.472 629.3988,-1667.2099 629.3988,-1829.6 629.3988,-2051.6 629.3988,-2051.6 629.3988,-2051.6 629.3988,-2071.8994 629.3988,-2094.809 629.3988,-2112.2736"/>
<polygon fill="#000000" stroke="#000000" points="625.8989,-2112.3721 629.3988,-2122.3721 632.8989,-2112.3721 625.8989,-2112.3721"/>
<text text-anchor="middle" x="637.3988" y="-1781" font-family="Times,serif" font-size="14.00" fill="#000000">72</text>
</g>
<!-- 20 -->
<g id="node21" class="node">
<title>20</title>
<ellipse fill="none" stroke="#000000" cx="590.3988" cy="-1341.2" rx="32.5309" ry="18"/>
<text text-anchor="middle" x="590.3988" y="-1337" font-family="Times,serif" font-size="14.00" fill="#000000">75,79</text>
</g>
<!-- 15&#45;&gt;20 -->
<g id="edge52" class="edge">
<title>15-&gt;20</title>
<path fill="none" stroke="#ff0000" stroke-width="3" d="M580.8272,-1412.03C582.4753,-1399.8338 584.6887,-1383.4543 586.5719,-1369.5187"/>
<polygon fill="#ff0000" stroke="#ff0000" stroke-width="3" points="590.062,-1369.8267 587.9328,-1359.4481 583.1251,-1368.8892 590.062,-1369.8267"/>
<text text-anchor="middle" x="596.8988" y="-1381.4" font-family="Times,serif" font-size="14.00" fill="#ff0000">106</text>
</g>
<!-- 22 -->
<g id="node23" class="node">
<title>22</title>
<ellipse fill="none" stroke="#000000" cx="450.3988" cy="-1518.8" rx="37.6864" ry="18"/>
<text text-anchor="middle" x="450.3988" y="-1514.6" font-family="Times,serif" font-size="14.00" fill="#000000">53,109</text>
</g>
<!-- 15&#45;&gt;22 -->
<g id="edge53" class="edge">
<title>15-&gt;22</title>
<path fill="none" stroke="#000000" d="M567.3872,-1447.0406C559.3563,-1458.3856 547.6019,-1472.9599 534.3988,-1482.8 521.685,-1492.2753 506.0963,-1499.839 491.8149,-1505.5395"/>
<polygon fill="#000000" stroke="#000000" points="490.2979,-1502.3715 482.1879,-1509.189 492.7793,-1508.9169 490.2979,-1502.3715"/>
<text text-anchor="middle" x="562.8988" y="-1470.2" font-family="Times,serif" font-size="14.00" fill="#000000">198</text>
</g>
<!-- 16&#45;&gt;12 -->
<g id="edge55" class="edge">
<title>16-&gt;12</title>
<path fill="none" stroke="#ff0000" stroke-width="3" d="M685.9682,-523.8914C687.1209,-512.9471 690.0827,-499.2224 697.3988,-489.2 703.7722,-480.4689 712.9613,-473.4892 722.2807,-468.0876"/>
<polygon fill="#ff0000" stroke="#ff0000" stroke-width="3" points="723.9651,-471.1562 731.1682,-463.3866 720.6921,-464.9685 723.9651,-471.1562"/>
<text text-anchor="middle" x="704.3988" y="-493.4" font-family="Times,serif" font-size="14.00" fill="#ff0000">58</text>
</g>
<!-- 16&#45;&gt;14 -->
<g id="edge54" class="edge">
<title>16-&gt;14</title>
<path fill="none" stroke="#000000" d="M704.9487,-556.6733C723.7699,-572.6317 749.3988,-600.0144 749.3988,-630.8 749.3988,-1208 749.3988,-1208 749.3988,-1208 749.3988,-1287.1133 737.3988,-1306.4867 737.3988,-1385.6 737.3988,-2051.6 737.3988,-2051.6 737.3988,-2051.6 737.3988,-2088.9974 698.2843,-2113.5436 667.134,-2127.1622"/>
<polygon fill="#000000" stroke="#000000" points="665.6733,-2123.9788 657.7745,-2131.04 668.3527,-2130.4458 665.6733,-2123.9788"/>
<text text-anchor="middle" x="746.3988" y="-1337" font-family="Times,serif" font-size="14.00" fill="#000000">44</text>
</g>
<!-- 16&#45;&gt;20 -->
<g id="edge56" class="edge">
<title>16-&gt;20</title>
<path fill="none" stroke="#000000" d="M681.5359,-559.9319C678.0279,-577.8 673.3988,-606.0647 673.3988,-630.8 673.3988,-1252.4 673.3988,-1252.4 673.3988,-1252.4 673.3988,-1283.2747 646.2883,-1307.8635 623.0555,-1323.2667"/>
<polygon fill="#000000" stroke="#000000" points="621.0023,-1320.4235 614.4058,-1328.7144 624.7327,-1326.3467 621.0023,-1320.4235"/>
<text text-anchor="middle" x="683.8988" y="-937.4" font-family="Times,serif" font-size="14.00" fill="#000000">138</text>
</g>
<!-- 21 -->
<g id="node22" class="node">
<title>21</title>
<ellipse fill="none" stroke="#000000" cx="535.3988" cy="-630.8" rx="32.5309" ry="18"/>
<text text-anchor="middle" x="535.3988" y="-626.6" font-family="Times,serif" font-size="14.00" fill="#000000">99,63</text>
</g>
<!-- 16&#45;&gt;21 -->
<g id="edge57" class="edge">
<title>16-&gt;21</title>
<path fill="none" stroke="#000000" d="M653.3854,-545.8662C628.4284,-550.2214 593.9947,-559.3096 569.3988,-578 560.4793,-584.7779 553.2425,-594.6208 547.7746,-603.9765"/>
<polygon fill="#000000" stroke="#000000" points="544.5551,-602.5734 542.8995,-613.0381 550.7196,-605.8899 544.5551,-602.5734"/>
<text text-anchor="middle" x="579.8988" y="-582.2" font-family="Times,serif" font-size="14.00" fill="#000000">114</text>
</g>
<!-- 17&#45;&gt;12 -->
<g id="edge59" class="edge">
<title>17-&gt;12</title>
<path fill="none" stroke="#000000" d="M614.1367,-103.7378C680.3448,-115.384 815.3988,-144.3437 815.3988,-186.8 815.3988,-364.4 815.3988,-364.4 815.3988,-364.4 815.3988,-389.7466 798.7489,-413.6341 783.4465,-430.2358"/>
<polygon fill="#000000" stroke="#000000" points="780.5797,-428.1637 776.1215,-437.7749 785.6003,-433.0417 780.5797,-428.1637"/>
<text text-anchor="middle" x="825.8988" y="-271.4" font-family="Times,serif" font-size="14.00" fill="#000000">164</text>
</g>
<!-- 17&#45;&gt;13 -->
<g id="edge58" class="edge">
<title>17-&gt;13</title>
<path fill="none" stroke="#000000" d="M581.5501,-116.0543C586.9638,-147.0691 598.0667,-210.6781 604.4978,-247.522"/>
<polygon fill="#000000" stroke="#000000" points="601.0883,-248.3442 606.2557,-257.5934 607.984,-247.1405 601.0883,-248.3442"/>
<text text-anchor="middle" x="604.3988" y="-182.6" font-family="Times,serif" font-size="14.00" fill="#000000">86</text>
</g>
<!-- 17&#45;&gt;21 -->
<g id="edge60" class="edge">
<title>17-&gt;21</title>
<path fill="none" stroke="#ff0000" stroke-width="3" d="M574.2903,-116.0176C566.0741,-153.6782 548.3988,-243.5772 548.3988,-320 548.3988,-497.6 548.3988,-497.6 548.3988,-497.6 548.3988,-533.9499 543.5438,-575.6169 539.7677,-602.527"/>
<polygon fill="#ff0000" stroke="#ff0000" stroke-width="3" points="536.2557,-602.3581 538.2839,-612.757 543.1832,-603.363 536.2557,-602.3581"/>
<text text-anchor="middle" x="558.8988" y="-360.2" font-family="Times,serif" font-size="14.00" fill="#ff0000">164</text>
</g>
<!-- 17&#45;&gt;25 -->
<g id="edge61" class="edge">
<title>17-&gt;25</title>
<path fill="none" stroke="#000000" d="M544.1283,-105.6648C517.7972,-112.3219 484.587,-122.6562 476.3988,-134 471.3631,-140.9763 469.885,-149.9331 470.0329,-158.4809"/>
<polygon fill="#000000" stroke="#000000" points="466.5539,-158.877 470.8899,-168.5439 473.5286,-158.283 466.5539,-158.877"/>
<text text-anchor="middle" x="486.8988" y="-138.2" font-family="Times,serif" font-size="14.00" fill="#000000">184</text>
</g>
<!-- 18&#45;&gt;10 -->
<g id="edge62" class="edge">
<title>18-&gt;10</title>
<path fill="none" stroke="#000000" d="M203.5424,-1803.4228C203.9239,-1814.4102 206.0883,-1828.1399 213.3988,-1838 221.5571,-1849.0036 234.0229,-1856.8585 246.3017,-1862.3629"/>
<polygon fill="#000000" stroke="#000000" points="244.9983,-1865.6111 255.5805,-1866.1271 247.6297,-1859.1245 244.9983,-1865.6111"/>
<text text-anchor="middle" x="223.8988" y="-1825.4" font-family="Times,serif" font-size="14.00" fill="#000000">150</text>
</g>
<!-- 18&#45;&gt;19 -->
<g id="edge63" class="edge">
<title>18-&gt;19</title>
<path fill="none" stroke="#000000" d="M210.6199,-1767.4392C212.4211,-1761.6837 214.2179,-1755.2286 215.3988,-1749.2 233.2164,-1658.2422 252.6984,-1372.0711 258.605,-1280.723"/>
<polygon fill="#000000" stroke="#000000" points="262.1085,-1280.7788 259.257,-1270.575 255.1229,-1280.3299 262.1085,-1280.7788"/>
<text text-anchor="middle" x="253.8988" y="-1514.6" font-family="Times,serif" font-size="14.00" fill="#000000">232</text>
</g>
<!-- 23 -->
<g id="node24" class="node">
<title>23</title>
<ellipse fill="none" stroke="#000000" cx="152.3988" cy="-1696.4" rx="37.6864" ry="18"/>
<text text-anchor="middle" x="152.3988" y="-1692.2" font-family="Times,serif" font-size="14.00" fill="#000000">31,135</text>
</g>
<!-- 18&#45;&gt;23 -->
<g id="edge64" class="edge">
<title>18-&gt;23</title>
<path fill="none" stroke="#ff0000" stroke-width="3" d="M182.1156,-1771.9686C174.0101,-1766.0257 165.5765,-1758.291 160.3988,-1749.2 156.2047,-1741.836 153.9858,-1732.9994 152.8662,-1724.6805"/>
<polygon fill="#ff0000" stroke="#ff0000" stroke-width="3" points="156.3394,-1724.2219 151.9701,-1714.57 149.3667,-1724.8399 156.3394,-1724.2219"/>
<text text-anchor="middle" x="170.8988" y="-1736.6" font-family="Times,serif" font-size="14.00" fill="#ff0000">358</text>
</g>
<!-- 19&#45;&gt;11 -->
<g id="edge68" class="edge">
<title>19-&gt;11</title>
<path fill="none" stroke="#000000" d="M294.2725,-1260.4278C320.1131,-1267.2609 352.7066,-1277.6534 361.3988,-1288.4 366.9386,-1295.2491 369.3247,-1304.3126 370.1371,-1312.9938"/>
<polygon fill="#000000" stroke="#000000" points="366.6458,-1313.332 370.4538,-1323.2188 373.6425,-1313.1152 366.6458,-1313.332"/>
<text text-anchor="middle" x="379.8988" y="-1292.6" font-family="Times,serif" font-size="14.00" fill="#000000">160</text>
</g>
<!-- 19&#45;&gt;18 -->
<g id="edge67" class="edge">
<title>19-&gt;18</title>
<path fill="none" stroke="#ff0000" stroke-width="3" d="M223.7145,-1256.5452C191.1966,-1261.2111 143.0171,-1270.5919 104.3988,-1288.4 80.7958,-1299.2841 70.7426,-1300.8952 57.3988,-1323.2 2.0578,-1415.7048 22.3988,-1455.405 22.3988,-1563.2 22.3988,-1696.4 22.3988,-1696.4 22.3988,-1696.4 22.3988,-1727.8601 111.3459,-1758.7319 164.8768,-1774.4629"/>
<polygon fill="#ff0000" stroke="#ff0000" stroke-width="3" points="164.1739,-1777.9028 174.7523,-1777.3118 166.1143,-1771.177 164.1739,-1777.9028"/>
<text text-anchor="middle" x="32.8988" y="-1514.6" font-family="Times,serif" font-size="14.00" fill="#ff0000">232</text>
</g>
<!-- 19&#45;&gt;22 -->
<g id="edge66" class="edge">
<title>19-&gt;22</title>
<path fill="none" stroke="#000000" d="M271.7094,-1269.9275C275.4583,-1275.7835 279.6339,-1282.3568 283.3988,-1288.4 302.8661,-1319.6475 301.613,-1331.9777 326.3988,-1359.2 352.8738,-1388.2776 372.1854,-1381.8218 397.3988,-1412 417.2832,-1435.7999 432.0467,-1468.3241 440.8723,-1491.2083"/>
<polygon fill="#000000" stroke="#000000" points="437.6278,-1492.525 444.3977,-1500.6748 444.1877,-1490.082 437.6278,-1492.525"/>
<text text-anchor="middle" x="385.3988" y="-1381.4" font-family="Times,serif" font-size="14.00" fill="#000000">90</text>
</g>
<!-- 19&#45;&gt;23 -->
<g id="edge65" class="edge">
<title>19-&gt;23</title>
<path fill="none" stroke="#000000" d="M230.2046,-1263.2582C186.139,-1281.2726 109.3988,-1321.8031 109.3988,-1385.6 109.3988,-1607.6 109.3988,-1607.6 109.3988,-1607.6 109.3988,-1630.7925 121.4274,-1654.2924 132.7608,-1671.2869"/>
<polygon fill="#000000" stroke="#000000" points="129.947,-1673.3703 138.5566,-1679.5448 135.6766,-1669.3489 129.947,-1673.3703"/>
<text text-anchor="middle" x="116.3988" y="-1470.2" font-family="Times,serif" font-size="14.00" fill="#000000">94</text>
</g>
<!-- 20&#45;&gt;15 -->
<g id="edge69" class="edge">
<title>20-&gt;15</title>
<path fill="none" stroke="#000000" d="M603.7295,-1357.8208C610.3888,-1368.2053 616.1195,-1381.8639 611.3988,-1394 609.5738,-1398.6917 606.8202,-1403.1436 603.6669,-1407.2146"/>
<polygon fill="#000000" stroke="#000000" points="600.7965,-1405.1775 596.8024,-1414.9907 606.0443,-1409.8101 600.7965,-1405.1775"/>
<text text-anchor="middle" x="623.8988" y="-1381.4" font-family="Times,serif" font-size="14.00" fill="#000000">106</text>
</g>
<!-- 20&#45;&gt;16 -->
<g id="edge70" class="edge">
<title>20-&gt;16</title>
<path fill="none" stroke="#ff0000" stroke-width="3" d="M602.7386,-1324.4688C614.1644,-1307.2931 629.3988,-1279.3408 629.3988,-1252.4 629.3988,-1252.4 629.3988,-1252.4 629.3988,-986 629.3988,-819.5983 624.5215,-775.5056 659.3988,-612.8 662.5919,-597.904 668.2527,-581.9244 673.4788,-568.9228"/>
<polygon fill="#ff0000" stroke="#ff0000" stroke-width="3" points="676.7358,-570.2056 677.3424,-559.6281 670.272,-567.5187 676.7358,-570.2056"/>
<text text-anchor="middle" x="639.8988" y="-937.4" font-family="Times,serif" font-size="14.00" fill="#ff0000">138</text>
</g>
<!-- 24 -->
<g id="node25" class="node">
<title>24</title>
<ellipse fill="none" stroke="#000000" cx="521.3988" cy="-897.2" rx="32.5309" ry="18"/>
<text text-anchor="middle" x="521.3988" y="-893" font-family="Times,serif" font-size="14.00" fill="#000000">99,75</text>
</g>
<!-- 20&#45;&gt;24 -->
<g id="edge71" class="edge">
<title>20-&gt;24</title>
<path fill="none" stroke="#000000" d="M585.0849,-1323.338C583.4658,-1317.577 581.7568,-1311.1443 580.3988,-1305.2 548.2363,-1164.4219 530.1218,-992.1091 523.8902,-925.4196"/>
<polygon fill="#000000" stroke="#000000" points="527.3596,-924.9254 522.9596,-915.2874 520.389,-925.5657 527.3596,-924.9254"/>
<text text-anchor="middle" x="558.8988" y="-1115" font-family="Times,serif" font-size="14.00" fill="#000000">116</text>
</g>
<!-- 27 -->
<g id="node28" class="node">
<title>27</title>
<ellipse fill="none" stroke="#000000" cx="396.3988" cy="-1252.4" rx="37.6864" ry="18"/>
<text text-anchor="middle" x="396.3988" y="-1248.2" font-family="Times,serif" font-size="14.00" fill="#000000">79,109</text>
</g>
<!-- 20&#45;&gt;27 -->
<g id="edge72" class="edge">
<title>20-&gt;27</title>
<path fill="none" stroke="#000000" d="M560.5822,-1333.3186C539.4813,-1327.1404 510.8781,-1317.5298 487.3988,-1305.2 476.1913,-1299.3146 475.1315,-1295.1122 464.3988,-1288.4 454.1501,-1281.9906 442.6502,-1275.6141 432.0643,-1270.0483"/>
<polygon fill="#000000" stroke="#000000" points="433.5412,-1266.8718 423.0512,-1265.3853 430.3246,-1273.089 433.5412,-1266.8718"/>
<text text-anchor="middle" x="497.8988" y="-1292.6" font-family="Times,serif" font-size="14.00" fill="#000000">194</text>
</g>
<!-- 21&#45;&gt;16 -->
<g id="edge73" class="edge">
<title>21-&gt;16</title>
<path fill="none" stroke="#000000" d="M556.9868,-617.0337C567.1986,-610.4294 579.512,-602.3317 590.3988,-594.8 600.8091,-587.5979 602.5887,-584.5869 613.3988,-578 625.17,-570.8274 638.5587,-563.8378 650.5711,-557.9549"/>
<polygon fill="#000000" stroke="#000000" points="652.3571,-560.9798 659.8525,-553.4918 649.3235,-554.6712 652.3571,-560.9798"/>
<text text-anchor="middle" x="623.8988" y="-582.2" font-family="Times,serif" font-size="14.00" fill="#000000">114</text>
</g>
<!-- 21&#45;&gt;17 -->
<g id="edge75" class="edge">
<title>21-&gt;17</title>
<path fill="none" stroke="#000000" d="M528.2611,-612.9303C498.9411,-538.3845 391.0407,-252.2033 428.3988,-168.8 446.0453,-129.4034 494.4593,-111.869 531.5568,-104.1018"/>
<polygon fill="#000000" stroke="#000000" points="532.523,-107.4804 541.6851,-102.1601 531.2049,-100.6056 532.523,-107.4804"/>
<text text-anchor="middle" x="460.8988" y="-360.2" font-family="Times,serif" font-size="14.00" fill="#000000">164</text>
</g>
<!-- 21&#45;&gt;24 -->
<g id="edge74" class="edge">
<title>21-&gt;24</title>
<path fill="none" stroke="#000000" d="M544.2329,-648.3229C546.7078,-654.0658 549.0804,-660.5735 550.3988,-666.8 568.296,-751.326 580.051,-780.0477 550.3988,-861.2 548.8383,-865.4709 546.5481,-869.6146 543.9276,-873.4783"/>
<polygon fill="#000000" stroke="#000000" points="541.1355,-871.3676 537.8185,-881.4298 546.6864,-875.6323 541.1355,-871.3676"/>
<text text-anchor="middle" x="576.3988" y="-759.8" font-family="Times,serif" font-size="14.00" fill="#000000">80</text>
</g>
<!-- 28 -->
<g id="node29" class="node">
<title>28</title>
<ellipse fill="none" stroke="#000000" cx="443.3988" cy="-719.6" rx="37.6864" ry="18"/>
<text text-anchor="middle" x="443.3988" y="-715.4" font-family="Times,serif" font-size="14.00" fill="#000000">135,59</text>
</g>
<!-- 21&#45;&gt;28 -->
<g id="edge76" class="edge">
<title>21-&gt;28</title>
<path fill="none" stroke="#ff0000" stroke-width="3" d="M518.9411,-646.6853C504.7124,-660.419 483.9474,-680.4618 467.7874,-696.0597"/>
<polygon fill="#ff0000" stroke="#ff0000" stroke-width="3" points="465.0374,-693.8496 460.273,-703.3127 469.8988,-698.8861 465.0374,-693.8496"/>
<text text-anchor="middle" x="508.8988" y="-671" font-family="Times,serif" font-size="14.00" fill="#ff0000">232</text>
</g>
<!-- 22&#45;&gt;15 -->
<g id="edge79" class="edge">
<title>22-&gt;15</title>
<path fill="none" stroke="#ff0000" stroke-width="3" d="M468.2735,-1502.7084C485.2188,-1487.4679 508.2615,-1466.7872 509.3988,-1466 520.0747,-1458.6106 532.458,-1451.6962 543.7625,-1445.9415"/>
<polygon fill="#ff0000" stroke="#ff0000" stroke-width="3" points="545.5352,-1448.9694 552.9435,-1441.3953 542.4289,-1442.6963 545.5352,-1448.9694"/>
<text text-anchor="middle" x="519.8988" y="-1470.2" font-family="Times,serif" font-size="14.00" fill="#ff0000">198</text>
</g>
<!-- 22&#45;&gt;19 -->
<g id="edge77" class="edge">
<title>22-&gt;19</title>
<path fill="none" stroke="#000000" d="M430.7638,-1503.1973C398.7386,-1476.7815 335.1532,-1420.1459 298.3988,-1359.2 283.3954,-1334.3215 273.0595,-1302.6221 266.9971,-1280.2408"/>
<polygon fill="#000000" stroke="#000000" points="270.336,-1279.1729 264.4367,-1270.3724 263.5603,-1280.9309 270.336,-1279.1729"/>
<text text-anchor="middle" x="329.3988" y="-1381.4" font-family="Times,serif" font-size="14.00" fill="#000000">90</text>
</g>
<!-- 26 -->
<g id="node27" class="node">
<title>26</title>
<ellipse fill="none" stroke="#000000" cx="175.3988" cy="-1607.6" rx="37.6864" ry="18"/>
<text text-anchor="middle" x="175.3988" y="-1603.4" font-family="Times,serif" font-size="14.00" fill="#000000">55,125</text>
</g>
<!-- 22&#45;&gt;26 -->
<g id="edge78" class="edge">
<title>22-&gt;26</title>
<path fill="none" stroke="#000000" d="M423.7981,-1531.9459C399.4345,-1543.5898 362.1389,-1560.4275 328.3988,-1571.6 292.7901,-1583.3912 251.3087,-1592.8993 220.5282,-1599.1765"/>
<polygon fill="#000000" stroke="#000000" points="219.6417,-1595.7844 210.5237,-1601.18 221.0163,-1602.6481 219.6417,-1595.7844"/>
<text text-anchor="middle" x="380.3988" y="-1559" font-family="Times,serif" font-size="14.00" fill="#000000">62</text>
</g>
<!-- 22&#45;&gt;27 -->
<g id="edge80" class="edge">
<title>22-&gt;27</title>
<path fill="none" stroke="#000000" d="M450.2799,-1500.4258C449.5882,-1478.644 446.6573,-1441.5723 435.3988,-1412 431.9778,-1403.0144 427.0079,-1402.9117 423.3988,-1394 411.3896,-1364.3468 416.3908,-1354.6266 410.3988,-1323.2 407.722,-1309.1613 404.6513,-1293.5774 402.069,-1280.6122"/>
<polygon fill="#000000" stroke="#000000" points="405.4259,-1279.5491 400.0342,-1270.4288 398.5616,-1280.9208 405.4259,-1279.5491"/>
<text text-anchor="middle" x="433.8988" y="-1381.4" font-family="Times,serif" font-size="14.00" fill="#000000">178</text>
</g>
<!-- 23&#45;&gt;18 -->
<g id="edge83" class="edge">
<title>23-&gt;18</title>
<path fill="none" stroke="#000000" d="M167.5464,-1713.2861C172.3323,-1719.0993 177.4081,-1725.8095 181.3988,-1732.4 186.2378,-1740.3916 190.6085,-1749.5833 194.208,-1758.0346"/>
<polygon fill="#000000" stroke="#000000" points="191.0488,-1759.557 198.0612,-1767.4992 197.5321,-1756.9175 191.0488,-1759.557"/>
<text text-anchor="middle" x="200.8988" y="-1736.6" font-family="Times,serif" font-size="14.00" fill="#000000">358</text>
</g>
<!-- 23&#45;&gt;19 -->
<g id="edge81" class="edge">
<title>23-&gt;19</title>
<path fill="none" stroke="#000000" d="M127.2139,-1682.6693C103.4362,-1667.6568 71.3988,-1641.1957 71.3988,-1607.6 71.3988,-1607.6 71.3988,-1607.6 71.3988,-1341.2 71.3988,-1309.1372 161.6263,-1278.9886 217.3982,-1263.4156"/>
<polygon fill="#000000" stroke="#000000" points="218.3258,-1266.7905 227.0444,-1260.7708 216.4749,-1260.0396 218.3258,-1266.7905"/>
<text text-anchor="middle" x="78.3988" y="-1470.2" font-family="Times,serif" font-size="14.00" fill="#000000">94</text>
</g>
<!-- 23&#45;&gt;26 -->
<g id="edge82" class="edge">
<title>23-&gt;26</title>
<path fill="none" stroke="#ff0000" stroke-width="3" d="M149.8929,-1677.958C149.109,-1667.6504 149.1596,-1654.6865 152.3988,-1643.6 153.4069,-1640.1495 154.8578,-1636.7151 156.5476,-1633.4144"/>
<polygon fill="#ff0000" stroke="#ff0000" stroke-width="3" points="159.7028,-1634.9544 161.7734,-1624.5639 153.6751,-1631.3953 159.7028,-1634.9544"/>
<text text-anchor="middle" x="162.8988" y="-1647.8" font-family="Times,serif" font-size="14.00" fill="#ff0000">198</text>
</g>
<!-- 24&#45;&gt;20 -->
<g id="edge85" class="edge">
<title>24-&gt;20</title>
<path fill="none" stroke="#000000" d="M542.4011,-911.1743C563.02,-926.751 591.3988,-954.002 591.3988,-986 591.3988,-1252.4 591.3988,-1252.4 591.3988,-1252.4 591.3988,-1272.7007 591.1342,-1295.6103 590.8773,-1313.0745"/>
<polygon fill="#000000" stroke="#000000" points="587.3763,-1313.1197 590.7207,-1323.1728 594.3754,-1313.2283 587.3763,-1313.1197"/>
<text text-anchor="middle" x="601.8988" y="-1115" font-family="Times,serif" font-size="14.00" fill="#000000">116</text>
</g>
<!-- 24&#45;&gt;21 -->
<g id="edge84" class="edge">
<title>24-&gt;21</title>
<path fill="none" stroke="#000000" d="M522.3611,-878.8892C524.7646,-833.1536 531.0437,-713.6719 533.9204,-658.9306"/>
<polygon fill="#000000" stroke="#000000" points="537.4186,-659.0566 534.4483,-648.8866 530.4282,-658.6891 537.4186,-659.0566"/>
<text text-anchor="middle" x="536.3988" y="-759.8" font-family="Times,serif" font-size="14.00" fill="#000000">80</text>
</g>
<!-- 29 -->
<g id="node30" class="node">
<title>29</title>
<ellipse fill="none" stroke="#000000" cx="428.3988" cy="-808.4" rx="37.6864" ry="18"/>
<text text-anchor="middle" x="428.3988" y="-804.2" font-family="Times,serif" font-size="14.00" fill="#000000">125,77</text>
</g>
<!-- 24&#45;&gt;29 -->
<g id="edge87" class="edge">
<title>24-&gt;29</title>
<path fill="none" stroke="#000000" d="M492.7053,-888.398C478.1011,-882.6662 461.0257,-873.8611 449.3988,-861.2 442.9508,-854.1786 438.3785,-844.9347 435.1846,-836.1467"/>
<polygon fill="#000000" stroke="#000000" points="438.5026,-835.0311 432.1378,-826.5612 431.8315,-837.1516 438.5026,-835.0311"/>
<text text-anchor="middle" x="459.8988" y="-848.6" font-family="Times,serif" font-size="14.00" fill="#000000">156</text>
</g>
<!-- 30 -->
<g id="node31" class="node">
<title>30</title>
<ellipse fill="none" stroke="#000000" cx="322.3988" cy="-986" rx="42.3433" ry="18"/>
<text text-anchor="middle" x="322.3988" y="-981.8" font-family="Times,serif" font-size="14.00" fill="#000000">101,107</text>
</g>
<!-- 24&#45;&gt;30 -->
<g id="edge86" class="edge">
<title>24-&gt;30</title>
<path fill="none" stroke="#000000" d="M497.7918,-910.1037C476.9377,-921.2801 445.5525,-937.562 417.3988,-950 400.4059,-957.5073 381.3144,-964.9311 364.7276,-971.0693"/>
<polygon fill="#000000" stroke="#000000" points="363.4732,-967.8013 355.2859,-974.5258 365.8796,-974.3747 363.4732,-967.8013"/>
<text text-anchor="middle" x="462.8988" y="-937.4" font-family="Times,serif" font-size="14.00" fill="#000000">190</text>
</g>
<!-- 25&#45;&gt;13 -->
<g id="edge90" class="edge">
<title>25-&gt;13</title>
<path fill="none" stroke="#000000" d="M497.5262,-201.4635C520.0052,-216.3601 554.9563,-239.5217 579.8053,-255.9888"/>
<polygon fill="#000000" stroke="#000000" points="578.1921,-259.1185 588.4613,-261.725 582.0589,-253.2834 578.1921,-259.1185"/>
<text text-anchor="middle" x="565.8988" y="-227" font-family="Times,serif" font-size="14.00" fill="#000000">570</text>
</g>
<!-- 25&#45;&gt;17 -->
<g id="edge89" class="edge">
<title>25-&gt;17</title>
<path fill="none" stroke="#ff0000" stroke-width="3" d="M487.9805,-169.4246C496.4061,-158.4963 508.1619,-144.523 520.3988,-134 527.6576,-127.7578 536.1106,-121.8704 544.2814,-116.7355"/>
<polygon fill="#ff0000" stroke="#ff0000" stroke-width="3" points="546.2247,-119.6505 552.9668,-111.4778 542.5996,-113.6623 546.2247,-119.6505"/>
<text text-anchor="middle" x="530.8988" y="-138.2" font-family="Times,serif" font-size="14.00" fill="#ff0000">184</text>
</g>
<!-- 25&#45;&gt;28 -->
<g id="edge88" class="edge">
<title>25-&gt;28</title>
<path fill="none" stroke="#000000" d="M452.139,-201.2984C444.5059,-207.1175 436.6445,-214.4396 431.3988,-222.8 379.8,-305.0357 391.8112,-338.79 380.3988,-435.2 367.3136,-545.7405 365.9735,-582.4312 412.3988,-683.6 414.308,-687.7604 416.8464,-691.809 419.6514,-695.5986"/>
<polygon fill="#000000" stroke="#000000" points="417.0262,-697.9168 426.0773,-703.424 422.436,-693.4745 417.0262,-697.9168"/>
<text text-anchor="middle" x="390.8988" y="-449" font-family="Times,serif" font-size="14.00" fill="#000000">124</text>
</g>
<!-- 26&#45;&gt;22 -->
<g id="edge91" class="edge">
<title>26-&gt;22</title>
<path fill="none" stroke="#000000" d="M203.4822,-1595.4641C230.5418,-1584.0468 272.7983,-1566.938 310.3988,-1554.8 342.0919,-1544.569 378.5466,-1535.2714 406.3102,-1528.6886"/>
<polygon fill="#000000" stroke="#000000" points="407.1832,-1532.079 416.1208,-1526.3895 405.5859,-1525.2636 407.1832,-1532.079"/>
<text text-anchor="middle" x="317.3988" y="-1559" font-family="Times,serif" font-size="14.00" fill="#000000">62</text>
</g>
<!-- 26&#45;&gt;23 -->
<g id="edge92" class="edge">
<title>26-&gt;23</title>
<path fill="none" stroke="#000000" d="M176.8719,-1626.0326C177.1609,-1636.3372 176.6259,-1649.3014 173.3988,-1660.4 172.4196,-1663.7676 171.0584,-1667.1504 169.495,-1670.4221"/>
<polygon fill="#000000" stroke="#000000" points="166.4012,-1668.7851 164.7026,-1679.2429 172.552,-1672.1269 166.4012,-1668.7851"/>
<text text-anchor="middle" x="186.8988" y="-1647.8" font-family="Times,serif" font-size="14.00" fill="#000000">198</text>
</g>
<!-- 31 -->
<g id="node32" class="node">
<title>31</title>
<ellipse fill="none" stroke="#000000" cx="205.3988" cy="-1163.6" rx="37.6864" ry="18"/>
<text text-anchor="middle" x="205.3988" y="-1159.4" font-family="Times,serif" font-size="14.00" fill="#000000">85,135</text>
</g>
<!-- 26&#45;&gt;31 -->
<g id="edge93" class="edge">
<title>26-&gt;31</title>
<path fill="none" stroke="#ff0000" stroke-width="3" d="M176.6307,-1589.3669C181.289,-1520.4255 197.8474,-1275.36 203.4952,-1191.7725"/>
<polygon fill="#ff0000" stroke="#ff0000" stroke-width="3" points="206.9909,-1191.9533 204.1731,-1181.7401 200.0068,-1191.4813 206.9909,-1191.9533"/>
<text text-anchor="middle" x="201.8988" y="-1381.4" font-family="Times,serif" font-size="14.00" fill="#ff0000">212</text>
</g>
<!-- 27&#45;&gt;20 -->
<g id="edge96" class="edge">
<title>27-&gt;20</title>
<path fill="none" stroke="#000000" d="M430.3382,-1260.275C453.1408,-1266.287 483.4634,-1275.7045 508.3988,-1288.4 519.6796,-1294.1435 520.8756,-1298.1639 531.3988,-1305.2 540.2266,-1311.1026 550.0019,-1317.2265 559.0147,-1322.7132"/>
<polygon fill="#000000" stroke="#000000" points="557.3388,-1325.7897 567.7098,-1327.9558 560.9532,-1319.795 557.3388,-1325.7897"/>
<text text-anchor="middle" x="541.8988" y="-1292.6" font-family="Times,serif" font-size="14.00" fill="#000000">194</text>
</g>
<!-- 27&#45;&gt;22 -->
<g id="edge95" class="edge">
<title>27-&gt;22</title>
<path fill="none" stroke="#ff0000" stroke-width="3" d="M413.2271,-1268.6545C434.8259,-1290.8128 471.2033,-1332.8455 485.3988,-1377.2 498.0204,-1416.6368 480.2391,-1463.4644 465.7441,-1492.1518"/>
<polygon fill="#ff0000" stroke="#ff0000" stroke-width="3" points="462.5689,-1490.6698 461.0031,-1501.1483 468.7616,-1493.9333 462.5689,-1490.6698"/>
<text text-anchor="middle" x="499.8988" y="-1381.4" font-family="Times,serif" font-size="14.00" fill="#ff0000">178</text>
</g>
<!-- 27&#45;&gt;30 -->
<g id="edge94" class="edge">
<title>27-&gt;30</title>
<path fill="none" stroke="#000000" d="M394.5852,-1234.4197C390.1257,-1194.7569 376.6342,-1097.3058 345.3988,-1022 344.0215,-1018.6795 342.3413,-1015.3259 340.5222,-1012.0708"/>
<polygon fill="#000000" stroke="#000000" points="343.3529,-1009.9896 335.1642,-1003.2668 337.3733,-1013.6288 343.3529,-1009.9896"/>
<text text-anchor="middle" x="384.3988" y="-1115" font-family="Times,serif" font-size="14.00" fill="#000000">64</text>
</g>
<!-- 27&#45;&gt;31 -->
<g id="edge97" class="edge">
<title>27-&gt;31</title>
<path fill="none" stroke="#000000" d="M364.7353,-1242.6264C344.7697,-1236.0686 318.6475,-1226.7563 296.3988,-1216.4 275.8109,-1206.8168 253.7568,-1194.0883 236.5166,-1183.53"/>
<polygon fill="#000000" stroke="#000000" points="238.3168,-1180.528 227.9731,-1178.2346 234.629,-1186.4778 238.3168,-1180.528"/>
<text text-anchor="middle" x="306.8988" y="-1203.8" font-family="Times,serif" font-size="14.00" fill="#000000">180</text>
</g>
<!-- 28&#45;&gt;21 -->
<g id="edge100" class="edge">
<title>28-&gt;21</title>
<path fill="none" stroke="#000000" d="M443.9676,-701.4396C445.1884,-690.3389 448.3842,-676.4651 456.3988,-666.8 466.3263,-654.828 481.0859,-646.6584 495.1693,-641.1708"/>
<polygon fill="#000000" stroke="#000000" points="496.4817,-644.4192 504.7435,-637.7865 494.1487,-637.8194 496.4817,-644.4192"/>
<text text-anchor="middle" x="466.8988" y="-671" font-family="Times,serif" font-size="14.00" fill="#000000">232</text>
</g>
<!-- 28&#45;&gt;25 -->
<g id="edge98" class="edge">
<title>28-&gt;25</title>
<path fill="none" stroke="#000000" d="M436.9606,-701.8366C431.1139,-684.0965 423.3988,-655.9265 423.3988,-630.8 423.3988,-630.8 423.3988,-630.8 423.3988,-497.6 423.3988,-391.9445 452.9926,-268.8211 467.5293,-214.7149"/>
<polygon fill="#000000" stroke="#000000" points="470.9681,-215.4081 470.2227,-204.8396 464.2147,-213.5662 470.9681,-215.4081"/>
<text text-anchor="middle" x="436.8988" y="-449" font-family="Times,serif" font-size="14.00" fill="#000000">124</text>
</g>
<!-- 28&#45;&gt;29 -->
<g id="edge99" class="edge">
<title>28-&gt;29</title>
<path fill="none" stroke="#ff0000" stroke-width="3" d="M448.7102,-737.4503C450.9807,-747.8004 452.4807,-761.0004 449.3988,-772.4 448.4835,-775.7855 447.1621,-779.1795 445.621,-782.4574"/>
<polygon fill="#ff0000" stroke="#ff0000" stroke-width="3" points="442.526,-780.823 440.8515,-791.2847 448.6845,-784.1506 442.526,-780.823"/>
<text text-anchor="middle" x="461.8988" y="-759.8" font-family="Times,serif" font-size="14.00" fill="#ff0000">144</text>
</g>
<!-- 29&#45;&gt;24 -->
<g id="edge101" class="edge">
<title>29-&gt;24</title>
<path fill="none" stroke="#000000" d="M447.5478,-824.159C454.835,-830.3248 463.1296,-837.5505 470.3988,-844.4 480.2541,-853.6863 490.7138,-864.3594 499.5786,-873.6686"/>
<polygon fill="#000000" stroke="#000000" points="497.1916,-876.2386 506.6017,-881.1071 502.2815,-871.4331 497.1916,-876.2386"/>
<text text-anchor="middle" x="496.8988" y="-848.6" font-family="Times,serif" font-size="14.00" fill="#000000">156</text>
</g>
<!-- 29&#45;&gt;28 -->
<g id="edge102" class="edge">
<title>29-&gt;28</title>
<path fill="none" stroke="#000000" d="M424.1974,-790.0794C422.5393,-779.8097 421.6138,-766.8433 424.3988,-755.6 425.1974,-752.3759 426.3432,-749.1222 427.6818,-745.9585"/>
<polygon fill="#000000" stroke="#000000" points="430.8831,-747.3789 432.1215,-736.8567 424.5916,-744.31 430.8831,-747.3789"/>
<text text-anchor="middle" x="434.8988" y="-759.8" font-family="Times,serif" font-size="14.00" fill="#000000">144</text>
</g>
<!-- 33 -->
<g id="node34" class="node">
<title>33</title>
<ellipse fill="none" stroke="#000000" cx="258.3988" cy="-719.6" rx="42.3433" ry="18"/>
<text text-anchor="middle" x="258.3988" y="-715.4" font-family="Times,serif" font-size="14.00" fill="#000000">131,105</text>
</g>
<!-- 29&#45;&gt;33 -->
<g id="edge103" class="edge">
<title>29-&gt;33</title>
<path fill="none" stroke="#ff0000" stroke-width="3" d="M402.9481,-795.1057C374.1162,-780.0453 326.9144,-755.3893 294.3355,-738.3716"/>
<polygon fill="#ff0000" stroke="#ff0000" stroke-width="3" points="295.631,-735.0996 285.1468,-733.5719 292.39,-741.3042 295.631,-735.0996"/>
<text text-anchor="middle" x="369.8988" y="-759.8" font-family="Times,serif" font-size="14.00" fill="#ff0000">242</text>
</g>
<!-- 30&#45;&gt;24 -->
<g id="edge106" class="edge">
<title>30-&gt;24</title>
<path fill="none" stroke="#000000" d="M340.1522,-969.6136C353.6041,-957.9781 373.0223,-942.7806 392.3988,-933.2 420.1834,-919.4621 454.0104,-910.27 480.0532,-904.6146"/>
<polygon fill="#000000" stroke="#000000" points="480.9041,-908.0125 489.9803,-902.547 479.4767,-901.1596 480.9041,-908.0125"/>
<text text-anchor="middle" x="402.8988" y="-937.4" font-family="Times,serif" font-size="14.00" fill="#000000">190</text>
</g>
<!-- 30&#45;&gt;27 -->
<g id="edge104" class="edge">
<title>30-&gt;27</title>
<path fill="none" stroke="#000000" d="M326.2677,-1003.9927C332.1754,-1030.9946 344.0647,-1083.533 356.3988,-1127.6 365.8312,-1161.2999 378.3685,-1199.5551 386.8748,-1224.7269"/>
<polygon fill="#000000" stroke="#000000" points="383.6103,-1225.9986 390.1426,-1234.34 390.2379,-1223.7456 383.6103,-1225.9986"/>
<text text-anchor="middle" x="363.3988" y="-1115" font-family="Times,serif" font-size="14.00" fill="#000000">64</text>
</g>
<!-- 32 -->
<g id="node33" class="node">
<title>32</title>
<ellipse fill="none" stroke="#000000" cx="198.3988" cy="-1074.8" rx="37.6864" ry="18"/>
<text text-anchor="middle" x="198.3988" y="-1070.6" font-family="Times,serif" font-size="14.00" fill="#000000">99,133</text>
</g>
<!-- 30&#45;&gt;32 -->
<g id="edge105" class="edge">
<title>30-&gt;32</title>
<path fill="none" stroke="#ff0000" stroke-width="3" d="M300.4242,-1001.7366C280.2245,-1016.2022 250.1249,-1037.7574 227.8494,-1053.7096"/>
<polygon fill="#ff0000" stroke="#ff0000" stroke-width="3" points="225.5261,-1051.0684 219.4337,-1059.7363 229.6018,-1056.7595 225.5261,-1051.0684"/>
<text text-anchor="middle" x="282.8988" y="-1026.2" font-family="Times,serif" font-size="14.00" fill="#ff0000">140</text>
</g>
<!-- 30&#45;&gt;33 -->
<g id="edge107" class="edge">
<title>30-&gt;33</title>
<path fill="none" stroke="#000000" d="M317.9998,-967.6892C307.0123,-921.9536 278.3079,-802.4719 265.1569,-747.7306"/>
<polygon fill="#000000" stroke="#000000" points="268.4831,-746.5924 262.7439,-737.6866 261.6768,-748.2276 268.4831,-746.5924"/>
<text text-anchor="middle" x="302.8988" y="-848.6" font-family="Times,serif" font-size="14.00" fill="#000000">228</text>
</g>
<!-- 31&#45;&gt;26 -->
<g id="edge109" class="edge">
<title>31-&gt;26</title>
<path fill="none" stroke="#000000" d="M201.88,-1181.5396C200.7574,-1187.3047 199.5167,-1193.7203 198.3988,-1199.6 182.0303,-1285.6938 163.3491,-1306.388 165.3988,-1394 166.957,-1460.6055 171.2449,-1538.7978 173.6696,-1579.5991"/>
<polygon fill="#000000" stroke="#000000" points="170.1773,-1579.8349 174.2717,-1589.6066 177.1647,-1579.4144 170.1773,-1579.8349"/>
<text text-anchor="middle" x="175.8988" y="-1381.4" font-family="Times,serif" font-size="14.00" fill="#000000">212</text>
</g>
<!-- 31&#45;&gt;27 -->
<g id="edge110" class="edge">
<title>31-&gt;27</title>
<path fill="none" stroke="#ff0000" stroke-width="3" d="M213.241,-1181.3999C219.2908,-1193.0839 228.765,-1207.7513 241.3988,-1216.4 246.0515,-1219.5851 307.8248,-1233.3524 351.9608,-1242.9071"/>
<polygon fill="#ff0000" stroke="#ff0000" stroke-width="3" points="351.405,-1246.3677 361.9184,-1245.0562 352.8819,-1239.5252 351.405,-1246.3677"/>
<text text-anchor="middle" x="251.8988" y="-1203.8" font-family="Times,serif" font-size="14.00" fill="#ff0000">180</text>
</g>
<!-- 31&#45;&gt;32 -->
<g id="edge108" class="edge">
<title>31-&gt;32</title>
<path fill="none" stroke="#000000" d="M206.8857,-1145.4649C207.4368,-1135.2532 207.6593,-1122.2831 206.3988,-1110.8 206.1176,-1108.2384 205.7271,-1105.5924 205.2685,-1102.9518"/>
<polygon fill="#000000" stroke="#000000" points="208.6654,-1102.0913 203.2505,-1092.9847 201.8046,-1103.4804 208.6654,-1102.0913"/>
<text text-anchor="middle" x="214.3988" y="-1115" font-family="Times,serif" font-size="14.00" fill="#000000">52</text>
</g>
<!-- 32&#45;&gt;30 -->
<g id="edge112" class="edge">
<title>32-&gt;30</title>
<path fill="none" stroke="#000000" d="M203.4607,-1056.7467C207.4746,-1045.4046 214.1441,-1031.2259 224.3988,-1022 238.0283,-1009.7378 256.1865,-1001.5455 273.167,-996.1211"/>
<polygon fill="#000000" stroke="#000000" points="274.3773,-999.4136 282.9857,-993.2373 272.4046,-992.6972 274.3773,-999.4136"/>
<text text-anchor="middle" x="234.8988" y="-1026.2" font-family="Times,serif" font-size="14.00" fill="#000000">140</text>
</g>
<!-- 32&#45;&gt;31 -->
<g id="edge111" class="edge">
<title>32-&gt;31</title>
<path fill="none" stroke="#000000" d="M191.2918,-1092.9449C188.209,-1103.1596 185.8267,-1116.1295 188.3988,-1127.6 189.0874,-1130.6708 190.0688,-1133.788 191.2171,-1136.8381"/>
<polygon fill="#000000" stroke="#000000" points="188.098,-1138.442 195.2996,-1146.213 194.5159,-1135.6472 188.098,-1138.442"/>
<text text-anchor="middle" x="195.3988" y="-1115" font-family="Times,serif" font-size="14.00" fill="#000000">52</text>
</g>
<!-- 34 -->
<g id="node35" class="node">
<title>34</title>
<ellipse fill="none" stroke="#000000" cx="183.3988" cy="-630.8" rx="42.3433" ry="18"/>
<text text-anchor="middle" x="183.3988" y="-626.6" font-family="Times,serif" font-size="14.00" fill="#000000">127,127</text>
</g>
<!-- 32&#45;&gt;34 -->
<g id="edge113" class="edge">
<title>32-&gt;34</title>
<path fill="none" stroke="#ff0000" stroke-width="3" d="M174.1467,-1060.8383C151.2496,-1045.6417 120.3988,-1019.0364 120.3988,-986 120.3988,-986 120.3988,-986 120.3988,-719.6 120.3988,-693.7007 138.4456,-670.0875 155.2213,-653.7323"/>
<polygon fill="#ff0000" stroke="#ff0000" stroke-width="3" points="157.808,-656.1073 162.7702,-646.7463 153.0535,-650.9696 157.808,-656.1073"/>
<text text-anchor="middle" x="130.8988" y="-848.6" font-family="Times,serif" font-size="14.00" fill="#ff0000">262</text>
</g>
<!-- 33&#45;&gt;29 -->
<g id="edge115" class="edge">
<title>33-&gt;29</title>
<path fill="none" stroke="#000000" d="M269.3637,-737.1716C277.4446,-748.7537 289.4298,-763.3931 303.3988,-772.4 327.0034,-787.6198 357.1741,-796.5481 381.9605,-801.7059"/>
<polygon fill="#000000" stroke="#000000" points="381.3838,-805.1592 391.8677,-803.6296 382.7182,-798.2875 381.3838,-805.1592"/>
<text text-anchor="middle" x="313.8988" y="-759.8" font-family="Times,serif" font-size="14.00" fill="#000000">242</text>
</g>
<!-- 33&#45;&gt;30 -->
<g id="edge116" class="edge">
<title>33-&gt;30</title>
<path fill="none" stroke="#ff0000" stroke-width="3" d="M256.9306,-737.7971C255.2296,-765.0598 253.8689,-817.927 264.3988,-861.2 273.1146,-897.0179 292.3923,-934.9935 306.3348,-959.5156"/>
<polygon fill="#ff0000" stroke="#ff0000" stroke-width="3" points="303.3397,-961.3277 311.3841,-968.2226 309.3952,-957.8161 303.3397,-961.3277"/>
<text text-anchor="middle" x="274.8988" y="-848.6" font-family="Times,serif" font-size="14.00" fill="#ff0000">228</text>
</g>
<!-- 33&#45;&gt;34 -->
<g id="edge114" class="edge">
<title>33-&gt;34</title>
<path fill="none" stroke="#000000" d="M250.0475,-701.9397C244.4802,-691.1641 236.5234,-677.4593 227.3988,-666.8 223.1867,-661.8795 218.2427,-657.116 213.2188,-652.7523"/>
<polygon fill="#000000" stroke="#000000" points="215.2924,-649.9256 205.3522,-646.2592 210.8365,-655.3242 215.2924,-649.9256"/>
<text text-anchor="middle" x="249.8988" y="-671" font-family="Times,serif" font-size="14.00" fill="#000000">110</text>
</g>
<!-- 34&#45;&gt;32 -->
<g id="edge119" class="edge">
<title>34-&gt;32</title>
<path fill="none" stroke="#000000" d="M177.1775,-648.9253C171.6363,-666.7028 164.3988,-694.6903 164.3988,-719.6 164.3988,-986 164.3988,-986 164.3988,-986 164.3988,-1008.1466 173.7361,-1031.4683 182.6243,-1048.6513"/>
<polygon fill="#000000" stroke="#000000" points="179.5973,-1050.4113 187.4538,-1057.5195 185.7448,-1047.0634 179.5973,-1050.4113"/>
<text text-anchor="middle" x="174.8988" y="-848.6" font-family="Times,serif" font-size="14.00" fill="#000000">262</text>
</g>
<!-- 34&#45;&gt;33 -->
<g id="edge118" class="edge">
<title>34-&gt;33</title>
<path fill="none" stroke="#000000" d="M186.8156,-648.882C189.5874,-659.8164 194.3886,-673.5399 202.3988,-683.6 207.5621,-690.0846 214.2275,-695.7614 221.1482,-700.5739"/>
<polygon fill="#000000" stroke="#000000" points="219.646,-703.7676 229.957,-706.2034 223.4155,-697.8692 219.646,-703.7676"/>
<text text-anchor="middle" x="212.8988" y="-671" font-family="Times,serif" font-size="14.00" fill="#000000">110</text>
</g>
<!-- 35 -->
<g id="node36" class="node">
<title>35</title>
<polygon fill="none" stroke="#000000" points="235.7708,-547.5623 183.3988,-560 131.0268,-547.5623 131.0757,-527.4377 235.7219,-527.4377 235.7708,-547.5623"/>
<text text-anchor="middle" x="183.3988" y="-537.8" font-family="Times,serif" font-size="14.00" fill="#000000">140,139</text>
</g>
<!-- 34&#45;&gt;35 -->
<g id="edge117" class="edge">
<title>34-&gt;35</title>
<path fill="none" stroke="#ff0000" stroke-width="3" d="M170.7248,-613.3183C167.3368,-607.6829 164.1361,-601.2261 162.3988,-594.8 160.4501,-587.5921 160.4501,-585.2079 162.3988,-578 163.4728,-574.0273 165.1061,-570.043 166.9972,-566.2482"/>
<polygon fill="#ff0000" stroke="#ff0000" stroke-width="3" points="170.1713,-567.746 172.0573,-557.3203 164.0815,-564.2943 170.1713,-567.746"/>
<text text-anchor="middle" x="172.8988" y="-582.2" font-family="Times,serif" font-size="14.00" fill="#ff0000">133</text>
</g>
<!-- 35&#45;&gt;34 -->
<g id="edge120" class="edge">
<title>35-&gt;34</title>
<path fill="none" stroke="#000000" d="M183.3988,-560.072C183.3988,-572.2243 183.3988,-588.4958 183.3988,-602.368"/>
<polygon fill="#000000" stroke="#000000" points="179.8989,-602.4005 183.3988,-612.4006 186.8989,-602.4006 179.8989,-602.4005"/>
<text text-anchor="middle" x="193.8988" y="-582.2" font-family="Times,serif" font-size="14.00" fill="#000000">133</text>
</g>
</g>
</svg>